<mxfile host="app.diagrams.net" agent="Mozilla/5.0 (Windows NT 10.0; Win64; x64) AppleWebKit/537.36 (KHTML, like Gecko) Chrome/131.0.0.0 Safari/537.36 Edg/131.0.0.0" version="25.0.3">
  <diagram name="Страница — 1" id="RqkSvNuRUZXmgBfp5--H">
    <mxGraphModel dx="1426" dy="791" grid="1" gridSize="10" guides="1" tooltips="1" connect="1" arrows="1" fold="1" page="1" pageScale="1" pageWidth="827" pageHeight="1169" math="0" shadow="0">
      <root>
        <mxCell id="0" />
        <mxCell id="1" parent="0" />
        <mxCell id="MMbKcnXyPM8RCQiENLH0-2" value="" style="ellipse;html=1;shape=startState;fillColor=#000000;strokeColor=#ff0000;" vertex="1" parent="1">
          <mxGeometry x="390" y="70" width="30" height="30" as="geometry" />
        </mxCell>
        <mxCell id="MMbKcnXyPM8RCQiENLH0-3" value="" style="edgeStyle=orthogonalEdgeStyle;html=1;verticalAlign=bottom;endArrow=open;endSize=8;strokeColor=#ff0000;rounded=0;" edge="1" source="MMbKcnXyPM8RCQiENLH0-2" parent="1">
          <mxGeometry relative="1" as="geometry">
            <mxPoint x="405" y="150" as="targetPoint" />
          </mxGeometry>
        </mxCell>
        <mxCell id="MMbKcnXyPM8RCQiENLH0-4" value="Начало" style="text;html=1;align=center;verticalAlign=middle;resizable=0;points=[];autosize=1;strokeColor=none;fillColor=none;" vertex="1" parent="1">
          <mxGeometry x="370" y="40" width="70" height="30" as="geometry" />
        </mxCell>
        <mxCell id="MMbKcnXyPM8RCQiENLH0-5" value="Обработка графа" style="html=1;align=center;verticalAlign=top;rounded=1;absoluteArcSize=1;arcSize=10;dashed=0;whiteSpace=wrap;" vertex="1" parent="1">
          <mxGeometry x="335" y="150" width="140" height="30" as="geometry" />
        </mxCell>
        <mxCell id="MMbKcnXyPM8RCQiENLH0-6" value="Вывод построенного кратчайшего маршрута" style="html=1;align=center;verticalAlign=top;rounded=1;absoluteArcSize=1;arcSize=10;dashed=0;whiteSpace=wrap;" vertex="1" parent="1">
          <mxGeometry x="335" y="565" width="140" height="35" as="geometry" />
        </mxCell>
        <mxCell id="MMbKcnXyPM8RCQiENLH0-7" value="Обработка матрицы графа" style="html=1;align=center;verticalAlign=top;rounded=1;absoluteArcSize=1;arcSize=10;dashed=0;whiteSpace=wrap;" vertex="1" parent="1">
          <mxGeometry x="335" y="220" width="140" height="40" as="geometry" />
        </mxCell>
        <mxCell id="MMbKcnXyPM8RCQiENLH0-8" value="Поиск маршрута без посещения введенной точки" style="html=1;align=center;verticalAlign=top;rounded=1;absoluteArcSize=1;arcSize=10;dashed=0;whiteSpace=wrap;" vertex="1" parent="1">
          <mxGeometry x="210" y="480" width="180" height="40" as="geometry" />
        </mxCell>
        <mxCell id="MMbKcnXyPM8RCQiENLH0-9" value="Поиск маршрута по всем точкам (вершинам графа)" style="html=1;align=center;verticalAlign=top;rounded=1;absoluteArcSize=1;arcSize=10;dashed=0;whiteSpace=wrap;" vertex="1" parent="1">
          <mxGeometry x="420" y="480" width="160" height="40" as="geometry" />
        </mxCell>
        <mxCell id="MMbKcnXyPM8RCQiENLH0-10" value="Получение запроса на ввод вершины графа без мусорных баков" style="html=1;align=center;verticalAlign=top;rounded=1;absoluteArcSize=1;arcSize=10;dashed=0;whiteSpace=wrap;" vertex="1" parent="1">
          <mxGeometry x="297.5" y="360" width="215" height="40" as="geometry" />
        </mxCell>
        <mxCell id="MMbKcnXyPM8RCQiENLH0-11" value="Вывод всех вершин и ребер между ними" style="html=1;align=center;verticalAlign=top;rounded=1;absoluteArcSize=1;arcSize=10;dashed=0;whiteSpace=wrap;" vertex="1" parent="1">
          <mxGeometry x="335" y="290" width="140" height="40" as="geometry" />
        </mxCell>
        <mxCell id="MMbKcnXyPM8RCQiENLH0-12" value="" style="edgeStyle=orthogonalEdgeStyle;html=1;verticalAlign=bottom;endArrow=open;endSize=8;strokeColor=#ff0000;rounded=0;exitX=0.5;exitY=1;exitDx=0;exitDy=0;" edge="1" parent="1" source="MMbKcnXyPM8RCQiENLH0-5">
          <mxGeometry relative="1" as="geometry">
            <mxPoint x="405" y="220" as="targetPoint" />
            <mxPoint x="440" y="140" as="sourcePoint" />
          </mxGeometry>
        </mxCell>
        <mxCell id="MMbKcnXyPM8RCQiENLH0-13" value="" style="edgeStyle=orthogonalEdgeStyle;html=1;verticalAlign=bottom;endArrow=open;endSize=8;strokeColor=#ff0000;rounded=0;exitX=0.5;exitY=1;exitDx=0;exitDy=0;entryX=0.5;entryY=0;entryDx=0;entryDy=0;" edge="1" parent="1" source="MMbKcnXyPM8RCQiENLH0-7" target="MMbKcnXyPM8RCQiENLH0-11">
          <mxGeometry relative="1" as="geometry">
            <mxPoint x="415" y="230" as="targetPoint" />
            <mxPoint x="415" y="190" as="sourcePoint" />
          </mxGeometry>
        </mxCell>
        <mxCell id="MMbKcnXyPM8RCQiENLH0-14" value="" style="rhombus;aspect=fixed;" vertex="1" parent="1">
          <mxGeometry x="395" y="430" width="20" height="20" as="geometry" />
        </mxCell>
        <mxCell id="MMbKcnXyPM8RCQiENLH0-17" value="" style="edgeStyle=orthogonalEdgeStyle;html=1;verticalAlign=bottom;endArrow=open;endSize=8;strokeColor=#ff0000;rounded=0;exitX=0.5;exitY=1;exitDx=0;exitDy=0;" edge="1" parent="1" source="MMbKcnXyPM8RCQiENLH0-11">
          <mxGeometry relative="1" as="geometry">
            <mxPoint x="405" y="360" as="targetPoint" />
            <mxPoint x="415" y="270" as="sourcePoint" />
          </mxGeometry>
        </mxCell>
        <mxCell id="MMbKcnXyPM8RCQiENLH0-18" value="" style="edgeStyle=orthogonalEdgeStyle;html=1;verticalAlign=bottom;endArrow=open;endSize=8;strokeColor=#ff0000;rounded=0;exitX=0.5;exitY=1;exitDx=0;exitDy=0;entryX=0.5;entryY=0;entryDx=0;entryDy=0;" edge="1" parent="1" source="MMbKcnXyPM8RCQiENLH0-10" target="MMbKcnXyPM8RCQiENLH0-14">
          <mxGeometry relative="1" as="geometry">
            <mxPoint x="415" y="370" as="targetPoint" />
            <mxPoint x="415" y="340" as="sourcePoint" />
          </mxGeometry>
        </mxCell>
        <mxCell id="MMbKcnXyPM8RCQiENLH0-19" value="" style="edgeStyle=orthogonalEdgeStyle;html=1;verticalAlign=bottom;endArrow=open;endSize=8;strokeColor=#ff0000;rounded=0;exitX=0;exitY=0.5;exitDx=0;exitDy=0;entryX=0.5;entryY=0;entryDx=0;entryDy=0;" edge="1" parent="1" source="MMbKcnXyPM8RCQiENLH0-14" target="MMbKcnXyPM8RCQiENLH0-8">
          <mxGeometry relative="1" as="geometry">
            <mxPoint x="470" y="480" as="targetPoint" />
            <mxPoint x="415" y="410" as="sourcePoint" />
          </mxGeometry>
        </mxCell>
        <mxCell id="MMbKcnXyPM8RCQiENLH0-20" value="Ввод точки" style="text;html=1;align=center;verticalAlign=middle;resizable=0;points=[];autosize=1;strokeColor=none;fillColor=none;" vertex="1" parent="1">
          <mxGeometry x="300" y="408" width="80" height="30" as="geometry" />
        </mxCell>
        <mxCell id="MMbKcnXyPM8RCQiENLH0-21" value="" style="edgeStyle=orthogonalEdgeStyle;html=1;verticalAlign=bottom;endArrow=open;endSize=8;strokeColor=#ff0000;rounded=0;exitX=1;exitY=0.5;exitDx=0;exitDy=0;entryX=0.5;entryY=0;entryDx=0;entryDy=0;" edge="1" parent="1" source="MMbKcnXyPM8RCQiENLH0-14" target="MMbKcnXyPM8RCQiENLH0-9">
          <mxGeometry relative="1" as="geometry">
            <mxPoint x="520" y="470" as="targetPoint" />
            <mxPoint x="405" y="450" as="sourcePoint" />
          </mxGeometry>
        </mxCell>
        <mxCell id="MMbKcnXyPM8RCQiENLH0-23" value="Без ввода точки" style="text;html=1;align=center;verticalAlign=middle;resizable=0;points=[];autosize=1;strokeColor=none;fillColor=none;" vertex="1" parent="1">
          <mxGeometry x="414" y="408" width="110" height="30" as="geometry" />
        </mxCell>
        <mxCell id="MMbKcnXyPM8RCQiENLH0-24" value="" style="edgeStyle=orthogonalEdgeStyle;html=1;verticalAlign=bottom;endArrow=open;endSize=8;strokeColor=#ff0000;rounded=0;exitX=0.5;exitY=1;exitDx=0;exitDy=0;entryX=0.25;entryY=0;entryDx=0;entryDy=0;" edge="1" parent="1" source="MMbKcnXyPM8RCQiENLH0-8" target="MMbKcnXyPM8RCQiENLH0-6">
          <mxGeometry relative="1" as="geometry">
            <mxPoint x="415" y="440" as="targetPoint" />
            <mxPoint x="415" y="410" as="sourcePoint" />
          </mxGeometry>
        </mxCell>
        <mxCell id="MMbKcnXyPM8RCQiENLH0-25" value="" style="edgeStyle=orthogonalEdgeStyle;html=1;verticalAlign=bottom;endArrow=open;endSize=8;strokeColor=#ff0000;rounded=0;exitX=0.5;exitY=1;exitDx=0;exitDy=0;entryX=0.75;entryY=0;entryDx=0;entryDy=0;" edge="1" parent="1" source="MMbKcnXyPM8RCQiENLH0-9" target="MMbKcnXyPM8RCQiENLH0-6">
          <mxGeometry relative="1" as="geometry">
            <mxPoint x="380" y="575" as="targetPoint" />
            <mxPoint x="310" y="530" as="sourcePoint" />
          </mxGeometry>
        </mxCell>
        <mxCell id="MMbKcnXyPM8RCQiENLH0-27" value="" style="edgeStyle=orthogonalEdgeStyle;html=1;verticalAlign=bottom;endArrow=open;endSize=8;strokeColor=#ff0000;rounded=0;exitX=0.5;exitY=1;exitDx=0;exitDy=0;" edge="1" parent="1" source="MMbKcnXyPM8RCQiENLH0-6">
          <mxGeometry relative="1" as="geometry">
            <mxPoint x="405" y="630" as="targetPoint" />
            <mxPoint x="415" y="410" as="sourcePoint" />
          </mxGeometry>
        </mxCell>
        <mxCell id="MMbKcnXyPM8RCQiENLH0-28" value="" style="ellipse;html=1;shape=endState;fillColor=#000000;strokeColor=#ff0000;" vertex="1" parent="1">
          <mxGeometry x="390" y="630" width="30" height="30" as="geometry" />
        </mxCell>
        <mxCell id="MMbKcnXyPM8RCQiENLH0-29" value="Конец" style="text;html=1;align=center;verticalAlign=middle;resizable=0;points=[];autosize=1;strokeColor=none;fillColor=none;" vertex="1" parent="1">
          <mxGeometry x="375" y="658" width="60" height="30" as="geometry" />
        </mxCell>
      </root>
    </mxGraphModel>
  </diagram>
</mxfile>
